<?xml version="1.0" encoding="UTF-8" standalone="no"?>
<svg
   xmlns:dc="http://purl.org/dc/elements/1.1/"
   xmlns:cc="http://creativecommons.org/ns#"
   xmlns:rdf="http://www.w3.org/1999/02/22-rdf-syntax-ns#"
   xmlns:svg="http://www.w3.org/2000/svg"
   xmlns="http://www.w3.org/2000/svg"
   xmlns:sodipodi="http://sodipodi.sourceforge.net/DTD/sodipodi-0.dtd"
   xmlns:inkscape="http://www.inkscape.org/namespaces/inkscape"
   version="1.1"
   id="svg10"
   width="200"
   height="167"
   viewBox="0 0 200 167"
   sodipodi:docname="logo-dice.svg"
   inkscape:version="1.0.1 (3bc2e813f5, 2020-09-07)">
  <metadata
     id="metadata16">
    <rdf:RDF>
      <cc:Work
         rdf:about="">
        <dc:format>image/svg+xml</dc:format>
        <dc:type
           rdf:resource="http://purl.org/dc/dcmitype/StillImage" />
        <dc:title></dc:title>
      </cc:Work>
    </rdf:RDF>
  </metadata>
  <defs
     id="defs14" />
  <sodipodi:namedview
     pagecolor="#ffffff"
     bordercolor="#666666"
     borderopacity="1"
     objecttolerance="10"
     gridtolerance="10"
     guidetolerance="10"
     inkscape:pageopacity="0"
     inkscape:pageshadow="2"
     inkscape:window-width="1920"
     inkscape:window-height="1027"
     id="namedview12"
     showgrid="false"
     inkscape:zoom="2.96"
     inkscape:cx="161.86425"
     inkscape:cy="75.126514"
     inkscape:window-x="-8"
     inkscape:window-y="-8"
     inkscape:window-maximized="1"
     inkscape:current-layer="g18" />
  <g
     inkscape:groupmode="layer"
     inkscape:label="Image"
     id="g18">
    <path
       style="fill:#ef2020;stroke:none"
       d="m 4.6621581,30.337839 v 1 c 11.0370999,-0.0073 25.2819999,0.9303 35.9999999,-1.5293 15.9048,-3.65 33.9347,-16.2613 48,-24.4707014 -5.0535,-2.12053 -10.6983,-0.16934 -16,-0.01389 -26.0308,0.76325 -44.6157,15.2781914 -67.9999999,25.0138914 m 60.9999999,68 c 7.5051,-2.7477 20.4869,-9.2773 24.9259,-16.0934 7.8379,-12.0349 6.2157,-23.173101 21.074102,-28.906601 L 95.662158,5.3378376 c -13.0642,2.35759 -27.4738,13.4572014 -39,20.0000014 -3.3828,1.9202 -10.0692,3.9389 -11.2122,8.1049 -1.4045,5.1191 3.602,14.018899 5.2114,18.895099 5.052,15.306601 10.0117,30.667101 15.0008,46.000001 m -12,-83 c -2.8189,4.3001 -8.0843,5.5681 -13,6 l 13,-6 m 34.1088,1.6227 c 7.9862,-2.9327 10.9195,11.0417 3.7832,13.4105 -7.4528,2.4737 -10.7581,-10.8492 -3.7832,-13.4105 m -85.1087999,17.3773 21.9999999,60 38,4.999996 -22,-65.999996 -37.9999999,1 m 32.3132999,6.9213 c 5.8097,-0.9364 9.3083,12.871899 3.554,12.871899 -4.7736,0 -8.7598,-12.032899 -3.554,-12.871899 m -22.0355,0.9105 c 4.785,-1.2795 9.2105,9.904699 4.3032,11.416699 -4.8841,1.5048 -9.2345799,-10.097999 -4.3032,-11.416699 m 92.722202,19.168199 v 1 c 14.492,7.625101 28.615,15.946701 43,23.769301 4.754,2.5851 11.465,8.269 17,8.4221 8.535,0.2359 22.702,-9.932 30,-14.1914 -10.023,-10.1297 -28.39,-16.127301 -41,-22.780901 -4.772,-2.5178 -10.435,-7.2293 -16,-7.5031 -10.081,-0.4959 -23.426,8.1636 -33,11.284 m 45,0 c -5.715,1.4282 -11.325,-0.6481 -14,-6 5.642,-1.4094 11.282,0.7725 14,6 m -20,5.000001 c -2.43,7.2488 -11.347,1.3443 -14,-3.000001 5.339,-1.4644 9.254,0.5752 14,3.000001 m -28,-3.000001 -25.000002,61.999992 37.000002,22.681 26,14.31901 c 3.682,-15.90601 10.733,-31.53401 16.003,-47.00001 1.697,-4.981 6.306,-12.424 5.495,-17.790091 -0.7,-4.6289 -9.868,-7.9105 -13.498,-9.9043 -13.797,-7.5778 -30.479,-21.5046 -46,-24.305601 m 65,7.000001 c -5.339,1.4644 -9.254,-0.5752 -14,-3 l 1,-4.000001 c 5.387,1.0483 10.297,1.801701 13,7.000001 m -96.959902,0.4923 c 8.4211,-1.7003 10.046,13.8969 1.9167,14.9259 -7.9802,1.0101 -9.5169,-13.3914 -1.9167,-14.9259 m 78.959902,8.5077 c -5.889,-0.0494 -12.039,-0.6428 -14,-7 6.141,0.0549 11.11,1.1257 14,7 m 35,1 c -5.741,-0.263 -11.207,-1.6282 -14,-7 5.976,-1.4932 12.213,0.8211 14,7 m -76,-5.3117 c 9.137,0 9.037,15.9514 0,15.7392 -9.043502,-0.2124 -9.120202,-15.7392 0,-15.7392 m -82.567102,2.0632 c 4.83,-1.477 9.0671,9.2244 4.2639,10.9028 -4.4579,1.5578 -8.9303,-9.4757 -4.2639,-10.9028 m 21.8449,2 c 5.3147,-1.6215 9.1163,11.4806 3.5085,12.3272 -5.1033,0.7704 -8.398,-10.8353 -3.5085,-12.3272 m 119.722202,9.2485 c -5.911,1.6212 -11.254,-0.4298 -14,-6 5.623,-1.2021 11.291,0.7892 14,6 m -24,74.000001 c 9.719,-4.835 24.565,-13.63801 31.351,-22.18401 4.343,-5.47 6.014,-14.3 8.341,-20.816 4.407,-12.34 9.253,-24.536391 13.308,-36.999991 -8.382,2.4148 -24.38,9.0119 -30.157,15.6373 -4.001,4.587691 -5.172,12.756691 -7.267,18.362691 -5.426,14.512 -13.312,30.67 -15.576,46.00001 m 47,-72.000001 c -0.842,5.5941 -3.065,10.038991 -8,12.999991 0.294,-5.660591 2.203,-11.216091 8,-12.999991 m -46.956,5.4529 c 9.36,-2.3032 12.167,13.275091 2.941,15.055091 -8.57,1.653 -11.058,-13.057791 -2.941,-15.055091 m -26,9.000091 c 9.535,-2.343 12.215,13.452 2.941,15.005 -8.567,1.433 -11.07,-13.007 -2.941,-15.005 m -24.028602,9.039 c 8.753602,-1.688 10.654602,12.677 1.9807,14.131 -8.594,1.441 -10.4454,-12.498 -1.9807,-14.131 m 80.984602,-0.492 c 0.807,5.562 -2.036,10.462 -7,13 0.299,-5.752 2.37,-9.56 7,-13 m -43.997,20.623 c 9.128,-1.258 10.79,13.94 1.982,15.535 -9.737,1.763 -11.753,-14.189 -1.982,-15.535 m 27.997,3.377 c -0.294,5.661 -2.203,11.216 -8,13 0.832,-5.527 2.866,-10.375 8,-13 z"
       id="path6420" />
  </g>
</svg>
